<svg aria-hidden="true" style="width:0;height:0;position:absolute;overflow:hidden" xmlns="http://www.w3.org/2000/svg"><defs><symbol id="icon-airbnb" viewBox="0 0 103 32"><path fill="#ff385c" style="fill:var(--color1,#ff385c)" d="M29.485 22.679c-.161-.39-.313-.8-.474-1.15l-.746-1.67-.03-.03c-2.218-4.8-4.588-9.68-7.099-14.48l-.101-.2c-.252-.47-.504-.99-.766-1.47-.323-.57-.635-1.18-1.15-1.76-.501-.607-1.132-1.096-1.847-1.432a5.377 5.377 0 0 0-6.421 1.432c-.474.58-.827 1.19-1.15 1.76-.252.52-.504 1.03-.766 1.5l-.101.2c-2.471 4.8-4.881 9.68-7.099 14.48l-.06.06c-.222.52-.484 1.06-.736 1.64-.161.35-.323.73-.484 1.15-.436 1.1-.575 2.293-.404 3.462s.646 2.274 1.379 3.206 1.698 1.658 2.8 2.107a6.904 6.904 0 0 0 3.485.454 8.499 8.499 0 0 0 3.207-1.1c1.311-.73 2.571-1.79 3.983-3.32 1.412 1.53 2.702 2.59 3.983 3.33a8.508 8.508 0 0 0 4.054 1.15c1.653.007 3.253-.58 4.504-1.651s2.069-2.556 2.303-4.179a5.894 5.894 0 0 0-.262-3.5v.01zm-14.48 1.66c-1.735-2.2-2.864-4.22-3.247-5.95a5.156 5.156 0 0 1-.101-1.96c.07-.51.262-.96.524-1.34.605-.87 1.664-1.41 2.824-1.41a3.34 3.34 0 0 1 2.824 1.4c.262.4.454.84.514 1.35.101.58.06 1.25-.101 1.96-.383 1.7-1.513 3.74-3.237 5.95zm12.847 1.48c-.115.824-.445 1.604-.958 2.262s-1.191 1.171-1.966 1.488c-.766.32-1.613.41-2.44.32a6.347 6.347 0 0 1-2.44-.84 15.72 15.72 0 0 1-3.66-3.1c2.118-2.6 3.398-4.97 3.882-7.08.232-1 .262-1.9.161-2.73a5.51 5.51 0 0 0-.867-2.2c-.509-.719-1.188-1.303-1.977-1.7s-1.665-.597-2.551-.58c-1.866 0-3.529.86-4.538 2.27a5.157 5.157 0 0 0-.857 2.21c-.131.84-.101 1.77.161 2.73.484 2.11 1.795 4.51 3.882 7.1a14.43 14.43 0 0 1-3.66 3.12c-.837.48-1.634.73-2.44.83-1.255.159-2.522-.179-3.526-.941s-1.665-1.887-1.838-3.129c-.101-.8-.03-1.6.292-2.5.101-.32.252-.64.413-1.02.222-.52.484-1.06.736-1.6l.04-.07c2.178-4.77 4.558-9.64 7.029-14.41l.101-.2c.252-.48.504-.99.766-1.47.262-.51.545-1 .908-1.4a3.375 3.375 0 0 1 3.982-.876c.443.206.836.504 1.15.876.353.4.645.89.908 1.4.252.48.504 1 .766 1.47l.101.2c2.46 4.77 4.84 9.64 7.059 14.41l.03.03c.262.52.484 1.1.736 1.6.161.39.323.7.424 1.03.192.9.292 1.7.192 2.5zm14.037-1.7c-.76.011-1.512-.148-2.202-.465s-1.298-.783-1.781-1.365a6.52 6.52 0 0 1-1.614-4.48 6.924 6.924 0 0 1 1.674-4.58 5.352 5.352 0 0 1 4.114-1.86c.735-.02 1.463.146 2.116.482s1.209.831 1.615 1.438l.101-1.57h2.945v12.08h-2.955l-.101-1.76c-.419.649-.999 1.18-1.684 1.544s-1.452.548-2.229.536zm.766-2.88c.585 0 1.099-.16 1.583-.45.444-.32.807-.74 1.089-1.25.252-.51.383-1.12.383-1.8a3.409 3.409 0 0 0-1.482-3.04 2.99 2.99 0 0 0-3.146 0c-.444.32-.807.74-1.089 1.25a3.972 3.972 0 0 0-.383 1.8 3.406 3.406 0 0 0 1.482 3.04c.474.29.988.45 1.563.45zm11.244-12.78c0 .35-.06.67-.222.93-.161.25-.383.48-.676.64s-.605.22-.928.22c-.323 0-.645-.06-.938-.22a1.853 1.853 0 0 1-.676-.64 1.81 1.81 0 0 1-.222-.93c0-.36.071-.68.222-.93.161-.3.393-.48.676-.64.292-.16.605-.23.938-.23a1.869 1.869 0 0 1 1.613.86c.147.292.22.614.212.94zm-3.429 15.3v-12.06h3.207v12.08H50.46l.01-.02zm11.778-8.9v.04c-.151-.07-.353-.1-.504-.13-.202-.04-.363-.04-.555-.04-.898 0-1.573.26-2.017.8-.484.55-.706 1.32-.706 2.31v5.93h-3.217v-12.08h2.955l.101 1.83c.323-.64.706-1.12 1.25-1.48a3.147 3.147 0 0 1 1.825-.5c.232 0 .454.02.645.06.101.03.161.03.222.06v3.2zm1.291 8.9V6.739h3.207v6.5c.454-.58.968-1.03 1.614-1.38 1.022-.497 2.182-.638 3.295-.4s2.112.84 2.836 1.71a6.518 6.518 0 0 1 1.613 4.49 6.924 6.924 0 0 1-1.674 4.58 5.352 5.352 0 0 1-4.114 1.86c-.735.02-1.463-.146-2.116-.482s-1.209-.831-1.615-1.438l-.101 1.57-2.945.03v-.02zm6.202-2.52c.575 0 1.089-.16 1.573-.45.444-.32.807-.74 1.089-1.25.262-.51.383-1.12.383-1.8 0-.67-.121-1.28-.383-1.79a3.759 3.759 0 0 0-1.089-1.25 2.99 2.99 0 0 0-3.146 0c-.454.32-.807.74-1.099 1.25a3.972 3.972 0 0 0-.383 1.8 3.406 3.406 0 0 0 1.482 3.04c.474.29.988.45 1.573.45zm7.573 2.53v-12.08h2.955l.101 1.57c.371-.602.898-1.094 1.526-1.427s1.333-.492 2.044-.463c.813-.014 1.612.21 2.297.644s1.226 1.059 1.555 1.796c.353.76.545 1.7.545 2.75v7.24H85.12v-6.82c0-.84-.192-1.5-.575-1.99-.383-.48-.908-.74-1.573-.74-.484 0-.908.1-1.281.32-.353.23-.645.52-.867.93-.224.415-.336.88-.323 1.35v6.92h-3.186zm12.625 0V6.729h3.217v6.5c.436-.583 1.002-1.058 1.655-1.386s1.374-.501 2.106-.504c.76-.011 1.512.148 2.202.465s1.298.784 1.781 1.366a6.53 6.53 0 0 1 1.603 4.48 6.912 6.912 0 0 1-1.674 4.58 5.352 5.352 0 0 1-4.114 1.86c-.735.02-1.463-.146-2.116-.482s-1.209-.831-1.615-1.438l-.091 1.57-2.955.03zm6.232-2.53c.585 0 1.099-.16 1.573-.45.454-.32.807-.74 1.099-1.25.252-.51.383-1.12.383-1.8a3.409 3.409 0 0 0-1.482-3.04 2.99 2.99 0 0 0-3.146 0c-.444.32-.807.74-1.089 1.25a3.61 3.61 0 0 0-.383 1.8 3.406 3.406 0 0 0 1.482 3.04c.474.29.958.45 1.563.45z"/></symbol><symbol id="icon-google" viewBox="0 0 96 32"><path fill="#ea4335" style="fill:var(--color2,#ea4335)" d="M40.853 16.41c0 4.442-3.526 7.715-7.853 7.715s-7.853-3.273-7.853-7.715c0-4.473 3.526-7.715 7.853-7.715s7.853 3.242 7.853 7.715zm-3.438 0c0-2.776-2.044-4.675-4.415-4.675s-4.415 1.899-4.415 4.675c0 2.748 2.044 4.675 4.415 4.675s4.415-1.93 4.415-4.675z"/><path fill="#fbbc05" style="fill:var(--color3,#fbbc05)" d="M57.794 16.41c0 4.442-3.526 7.715-7.853 7.715s-7.853-3.273-7.853-7.715c0-4.47 3.526-7.715 7.853-7.715s7.853 3.242 7.853 7.715zm-3.438 0c0-2.776-2.044-4.675-4.415-4.675s-4.415 1.899-4.415 4.675c0 2.748 2.044 4.675 4.415 4.675s4.415-1.93 4.415-4.675z"/><path fill="#4285f4" style="fill:var(--color4,#4285f4)" d="M74.029 9.162v13.851c0 5.697-3.409 8.024-7.44 8.024-3.794 0-6.078-2.501-6.939-4.546l2.993-1.228C63.176 26.519 64.482 28 66.585 28c2.58 0 4.179-1.569 4.179-4.522v-1.11h-.12c-.769.936-2.252 1.753-4.122 1.753-3.914 0-7.5-3.36-7.5-7.683 0-4.355 3.586-7.743 7.5-7.743 1.867 0 3.349.817 4.122 1.725h.12V9.164h3.265V9.16zm-3.021 7.276c0-2.717-1.839-4.703-4.179-4.703-2.372 0-4.359 1.986-4.359 4.703 0 2.689 1.987 4.647 4.359 4.647 2.34 0 4.179-1.958 4.179-4.647z"/><path fill="#34a853" style="fill:var(--color5,#34a853)" d="M79.412 1.043v22.609h-3.353V1.043h3.353z"/><path fill="#ea4335" style="fill:var(--color2,#ea4335)" d="m92.478 18.95 2.668 1.753c-.861 1.256-2.936 3.419-6.522 3.419-4.447 0-7.768-3.388-7.768-7.715 0-4.588 3.349-7.715 7.384-7.715 4.062 0 6.049 3.186 6.699 4.908l.356.877-10.465 4.271c.801 1.548 2.047 2.337 3.794 2.337 1.751 0 2.965-.849 3.854-2.136zm-8.213-2.776 6.995-2.863c-.385-.964-1.542-1.635-2.905-1.635-1.747 0-4.179 1.52-4.091 4.497z"/><path fill="#4285f4" style="fill:var(--color4,#4285f4)" d="M12.455 14.403V11.13h11.192c.109.57.166 1.245.166 1.976 0 2.456-.681 5.492-2.876 7.656-2.135 2.191-4.864 3.36-8.478 3.36C5.76 24.122.127 18.745.127 12.143S5.76.164 12.459.164c3.706 0 6.346 1.433 8.329 3.301l-2.344 2.31c-1.422-1.315-3.349-2.337-5.989-2.337-4.892 0-8.718 3.885-8.718 8.706s3.826 8.706 8.718 8.706c3.173 0 4.98-1.256 6.138-2.396.939-.925 1.556-2.247 1.8-4.052l-7.938.003z"/></symbol><symbol id="icon-hubspot" viewBox="0 0 112 32"><path fill="#33475b" style="fill:var(--color6,#33475b)" d="M12.129 5.297v9.026H3.905V5.297H0v21.547h3.905v-8.733h8.224v8.733h3.905V5.297h-3.905zM28.53 19.879c0 .863-.34 1.692-.946 2.302s-1.427.954-2.284.954c-.857 0-1.678-.343-2.284-.954s-.946-1.439-.946-2.302V10.65h-3.704v9.229c0 1.852.73 3.628 2.029 4.937s3.061 2.045 4.898 2.045 3.599-.736 4.898-2.045a7.01 7.01 0 0 0 2.029-4.937V10.65h-3.69v9.229zM55.971 11.601c0-1.892 1.242-2.491 2.602-2.491 1.096 0 2.544.841 3.491 1.861L64.49 8.09c-1.211-1.651-3.667-2.792-5.678-2.792-4.017 0-6.923 2.372-6.923 6.304 0 7.295 8.846 4.981 8.846 9.063 0 1.259-1.213 2.372-2.602 2.372-2.191 0-2.9-1.08-3.907-2.221l-2.692 2.821c1.722 2.131 3.845 3.213 6.39 3.213 3.817 0 6.887-2.401 6.887-6.153 0-8.099-8.846-5.582-8.846-9.094zM110.697 23.402c-2.189 0-2.81-.955-2.81-2.416v-6.469h3.401v-3.278h-3.401V6.914l-3.755 1.699v13.178c0 3.371 2.307 5.069 5.471 5.069a7.51 7.51 0 0 0 1.481-.12l.916-3.4c-.413.029-.888.058-1.303.058zM42.627 10.758c-1.835 0-3.115.536-4.352 1.761V5.427h-3.709v13.145c0 4.921 3.53 8.292 7.495 8.292 4.4 0 8.27-3.43 8.27-8.051 0-4.562-3.562-8.053-7.704-8.053v-.002zm-.022 12.343c-.832 0-1.646-.249-2.338-.715s-1.232-1.129-1.55-1.904a4.264 4.264 0 0 1 .913-4.623c.589-.593 1.339-.997 2.155-1.161s1.663-.08 2.432.241 1.426.865 1.889 1.563c.463.698.709 1.518.709 2.357 0 1.125-.443 2.204-1.233 3s-1.86 1.243-2.976 1.243zM82.906 18.616c0-4.628-3.863-8.051-8.27-8.051-3.966 0-7.495 3.371-7.495 8.292V32.01h3.709v-7.102c1.236 1.223 2.518 1.761 4.35 1.761 4.142 0 7.704-3.488 7.704-8.053h.002zm-3.513-.047c0 .839-.247 1.659-.709 2.357s-1.12 1.241-1.889 1.563-1.615.405-2.432.241c-.816-.164-1.566-.568-2.155-1.161s-.989-1.349-1.152-2.172-.079-1.676.239-2.451c.319-.775.858-1.438 1.55-1.904a4.186 4.186 0 0 1 5.314.528 4.263 4.263 0 0 1 1.233 3z"/><path fill="#ff7a59" style="fill:var(--color7,#ff7a59)" d="M94.889 10.384V6.628c.493-.232.91-.6 1.203-1.062s.45-.997.452-1.545v-.087c0-.767-.302-1.503-.841-2.045s-1.268-.847-2.029-.847h-.086c-.761 0-1.491.305-2.029.847s-.841 1.278-.841 2.045v.087c.003.548.159 1.084.452 1.545s.71.83 1.203 1.062v3.756a8.099 8.099 0 0 0-3.865 1.714l-10.22-8.024c.072-.265.111-.537.115-.812.001-.645-.187-1.275-.542-1.812S77.002.495 76.412.247c-.591-.248-1.241-.313-1.868-.188s-1.204.434-1.657.889c-.453.455-.762 1.035-.887 1.667s-.063 1.287.181 1.883c.244.596.658 1.105 1.189 1.464s1.156.551 1.796.551a3.187 3.187 0 0 0 1.592-.436l10.065 7.893a8.268 8.268 0 0 0 .124 9.256l-3.061 3.085a2.58 2.58 0 0 0-.765-.125c-.525 0-1.038.158-1.475.452s-.776.712-.977 1.201c-.201.489-.253 1.027-.151 1.546s.355.996.727 1.37a2.646 2.646 0 0 0 2.893.58c.485-.202.9-.545 1.192-.985s.448-.957.448-1.486a2.65 2.65 0 0 0-.124-.771l3.028-3.053c.987.766 2.136 1.294 3.357 1.544s2.483.214 3.688-.104c1.206-.318 2.323-.909 3.267-1.73s1.689-1.847 2.178-3.002a8.294 8.294 0 0 0-.377-7.236c-.606-1.097-1.454-2.04-2.478-2.756s-2.196-1.186-3.428-1.375zm-1.255 12.353c-.828-.001-1.638-.249-2.326-.713s-1.225-1.124-1.541-1.896a4.249 4.249 0 0 1 .91-4.6 4.16 4.16 0 0 1 4.565-.915 4.19 4.19 0 0 1 1.88 1.555c.46.694.706 1.51.707 2.345 0 1.12-.441 2.194-1.227 2.986s-1.851 1.237-2.963 1.237z"/></symbol><symbol id="icon-microsoft" viewBox="0 0 150 32"><path fill="#737373" style="fill:var(--color8,#737373)" d="m53.001 18.431-.895 2.53h-.075a17.964 17.964 0 0 0-.87-2.481L46.363 6.449h-4.698v19.175h3.107V13.791c0-.744 0-1.588-.025-2.629-.025-.521-.075-.918-.099-1.216h.075c.149.744.323 1.29.447 1.637l5.767 13.991h2.188l5.718-14.115c.124-.322.249-.967.373-1.513h.075a176.056 176.056 0 0 0-.149 3.448v12.155h3.306V6.399h-4.525L53.001 18.43zm12.579-6.623h3.232v13.743H65.58V11.808zm1.641-5.805c-.547 0-.994.198-1.367.546s-.572.794-.572 1.34c0 .521.199.967.572 1.315s.82.521 1.367.521 1.019-.198 1.367-.521c.373-.347.572-.794.572-1.315s-.199-.967-.572-1.34c-.323-.347-.795-.546-1.367-.546zm13.052 5.681a9.037 9.037 0 0 0-1.815-.198c-1.467 0-2.809.322-3.928.967s-2.014 1.538-2.585 2.654c-.597 1.141-.895 2.456-.895 3.969 0 1.315.298 2.481.87 3.547.572 1.042 1.367 1.885 2.436 2.456 1.019.571 2.213.868 3.555.868 1.541 0 2.859-.322 3.903-.918l.025-.025v-2.977l-.124.099a5.57 5.57 0 0 1-1.566.819c-.572.199-1.094.298-1.541.298-1.293 0-2.312-.372-3.033-1.191-.746-.794-1.119-1.885-1.119-3.25 0-1.414.373-2.53 1.144-3.349s1.79-1.24 3.033-1.24c1.044 0 2.113.347 3.083 1.042l.124.099v-3.15l-.025-.025c-.423-.174-.895-.372-1.541-.496zm10.664-.099c-.795 0-1.541.248-2.188.769-.547.447-.92 1.091-1.243 1.86h-.025v-2.406h-3.232v13.743h3.232v-7.02c0-1.191.249-2.183.796-2.902.547-.744 1.243-1.116 2.088-1.116.298 0 .597.074.969.124.348.099.597.198.771.322l.124.099v-3.225l-.075-.025c-.224-.149-.671-.223-1.218-.223zm8.801-.075c-2.262 0-4.077.67-5.345 1.984-1.293 1.315-1.914 3.126-1.914 5.408 0 2.133.646 3.87 1.889 5.135 1.243 1.24 2.933 1.885 5.047 1.885 2.213 0 3.978-.67 5.245-2.009 1.293-1.34 1.914-3.126 1.914-5.333 0-2.183-.597-3.919-1.815-5.184-1.168-1.265-2.884-1.885-5.022-1.885zm2.585 10.568c-.597.769-1.541 1.141-2.71 1.141s-2.113-.372-2.784-1.191c-.671-.769-.994-1.885-.994-3.299 0-1.464.348-2.58.994-3.374.671-.794 1.591-1.191 2.76-1.191 1.144 0 2.039.372 2.685 1.141s.994 1.885.994 3.349c-.05 1.488-.323 2.654-.945 3.423zm11.461-4.565c-1.019-.422-1.666-.744-1.964-1.017-.249-.248-.373-.595-.373-1.042 0-.372.149-.744.522-.992s.796-.372 1.417-.372c.547 0 1.119.099 1.666.248s1.044.372 1.442.67l.124.099v-3.026l-.075-.025a8.959 8.959 0 0 0-1.467-.422 10.023 10.023 0 0 0-1.591-.149c-1.541 0-2.809.372-3.804 1.191-.994.769-1.467 1.811-1.467 3.026 0 .645.099 1.216.323 1.687s.547.918.994 1.29c.448.347 1.094.744 1.989 1.116.746.322 1.318.571 1.666.769s.572.422.746.595c.124.199.199.447.199.769 0 .918-.696 1.364-2.113 1.364-.547 0-1.119-.099-1.79-.322s-1.293-.546-1.815-.918l-.124-.099v3.15l.075.025c.472.223 1.044.372 1.74.546.696.124 1.318.223 1.865.223 1.666 0 3.033-.372 4.002-1.191.994-.794 1.516-1.811 1.516-3.126 0-.918-.249-1.736-.795-2.357a10.112 10.112 0 0 0-2.909-1.712zm12.231-6.003c-2.262 0-4.077.67-5.345 1.984s-1.914 3.126-1.914 5.408c0 2.133.646 3.87 1.889 5.135 1.243 1.24 2.934 1.885 5.046 1.885 2.213 0 3.978-.67 5.246-2.009 1.294-1.34 1.915-3.126 1.915-5.333 0-2.183-.597-3.919-1.815-5.184-1.168-1.265-2.884-1.885-5.022-1.885zm2.561 10.568c-.597.769-1.542 1.141-2.71 1.141-1.194 0-2.113-.372-2.784-1.191-.672-.769-.995-1.885-.995-3.299 0-1.464.348-2.58.995-3.374.671-.794 1.59-1.191 2.759-1.191 1.119 0 2.038.372 2.684 1.141s.994 1.885.994 3.349c0 1.488-.324 2.654-.944 3.423zm21.553-7.616v-2.654h-3.257V7.74l-.1.025-3.157.943v3.101h-4.873v-1.736c0-.794.198-1.414.546-1.811s.87-.595 1.516-.595c.448 0 .921.099 1.442.322l.124.074V5.26l-.075-.025c-.447-.149-1.044-.248-1.814-.248-.97 0-1.815.223-2.586.595a4.309 4.309 0 0 0-1.765 1.761c-.422.744-.646 1.588-.646 2.555v1.91h-2.262v2.629h2.262V25.55h3.257V14.462h4.873v7.07c0 2.902 1.367 4.366 4.102 4.366.447 0 .919-.074 1.366-.149.473-.099.821-.223 1.02-.322l.025-.025v-2.654l-.124.099a2.116 2.116 0 0 1-.672.298 2.289 2.289 0 0 1-.646.099c-.646 0-1.093-.149-1.417-.521-.298-.347-.448-.918-.448-1.761v-6.499h3.307z"/><path fill="#f25022" style="fill:var(--color9,#f25022)" d="M0 0h15.239v15.206H0V0z"/><path fill="#7fba00" style="fill:var(--color10,#7fba00)" d="M16.83 0h15.239v15.206H16.83V0z"/><path fill="#00a4ef" style="fill:var(--color11,#00a4ef)" d="M0 16.794h15.239V32H0V16.794z"/><path fill="#ffb900" style="fill:var(--color12,#ffb900)" d="M16.83 16.794h15.239V32H16.83V16.794z"/></symbol></defs></svg>